# xmcd CD database file
#
# Track frame offsets:
#	206
#	28855
#	42055
#	67720
#	80602
#	100978
#	118756
#	144544
#	165791
#	181245
#	200293
#	215717
#	230984
#
# Disc length: 3287 seconds
#
# Revision: 0
# Processed by: cddbd v1.5PL3 Copyright (c) Steve Scherf et al.
# Submitted via: cdripper 1.0.7
#
DISCID=b00cd50d
DTITLE=Roy Lee Johnson - When a Guitar Plays the Blues
DYEAR=1998
DGENRE=Blues
TTITLE0=When a Guitar Plays the Blues
TTITLE1=Red Hot
TTITLE2=Livin in Reverse
TTITLE3=Want to Be Touched by You
TTITLE4=I Thought About You
TTITLE5=Real Thang
TTITLE6=Who Do Me
TTITLE7=Hooks and Wheels
TTITLE8=You're the One
TTITLE9=Too Much Houch
TTITLE10=Tell Me Where She Went
TTITLE11=Mr. Moonlight
TTITLE12=Mr. Moonlight [instrumental]
EXTD=YEAR: 1998
EXTT0=
EXTT1=
EXTT2=
EXTT3=
EXTT4=
EXTT5=
EXTT6=
EXTT7=
EXTT8=
EXTT9=
EXTT10=
EXTT11=
EXTT12=
PLAYORDER=
